<?xml version="1.0" standalone="no"?><!DOCTYPE svg PUBLIC "-//W3C//DTD SVG 1.1//EN" "http://www.w3.org/Graphics/SVG/1.1/DTD/svg11.dtd"><svg t="1780737171111" class="icon" viewBox="0 0 1024 1024" version="1.1" xmlns="http://www.w3.org/2000/svg" p-id="14754" xmlns:xlink="http://www.w3.org/1999/xlink" width="200" height="200"><path d="M604.672 522.1888c14.7968 0 26.794667-12.049067 26.794667-26.9312 0-14.848-11.997867-26.914133-26.794667-26.914133h-41.762133l59.255466-84.5824c8.533333-12.151467 5.632-28.962133-6.485333-37.512534a26.709333 26.709333 0 0 0-37.3248 6.519467l-69.922133 99.7888-67.072-97.314133a26.709333 26.709333 0 0 0-37.290667-6.826667 27.016533 27.016533 0 0 0-6.775467 37.4784l56.832 82.432h-33.143466c-14.7968 0-26.794667 12.066133-26.794667 26.9312 0 14.882133 11.997867 26.9312 26.794667 26.9312h63.965866v27.9552h-63.965866c-14.7968 0-26.794667 12.049067-26.794667 26.914133 0 14.882133 11.997867 26.9312 26.794667 26.9312h63.965866v34.679467c0 14.882133 11.997867 26.9312 26.794667 26.9312 14.7968 0 26.794667-12.049067 26.794667-26.9312V603.989333h66.133333c14.7968 0 26.794667-12.049067 26.794667-26.9312 0-14.865067-11.997867-26.914133-26.794667-26.914133h-66.133333v-27.9552h66.133333z" fill="#275FF5" p-id="14755"></path><path d="M849.237333 344.8832h-62.532266c-10.666667 0-14.813867 14.062933-5.905067 20.0192l141.738667 111.479467c7.645867 4.471467 17.015467-1.774933 16.059733-10.683734C915.797333 251.835733 737.2288 85.333333 520.328533 85.333333c-186.026667 0-343.8592 122.453333-399.4112 292.232534-4.266667 13.0048 2.286933 22.3744 13.994667 29.218133 17.6128 3.9424 28.330667 0.1024 32.136533-11.537067 47.5136-145.322667 193.809067-263.697067 353.006934-263.697066 139.281067 0 269.312 95.931733 329.198933 213.333333zM153.258667 629.162667h62.941866c9.813333 0 13.653333-13.073067 5.444267-18.602667L100.164267 496.298667a9.8816 9.8816 0 0 0-14.830934 8.721066v0.170667C85.333333 744.618667 274.824533 938.666667 508.586667 938.666667c200.584533 0 368.5888-142.916267 412.2112-334.762667 3.072-13.482667 4.590933-27.460267-7.133867-34.372267-17.851733-10.581333-35.293867-0.392533-39.970133 20.189867C836.471467 754.005333 680.055467 893.098667 508.3136 893.098667c-157.696 0-305.322667-119.893333-355.037867-263.953067z" fill="#2A2A33" p-id="14756"></path></svg>